<?xml version="1.0" standalone="no"?>
<!DOCTYPE svg PUBLIC "-//W3C//DTD SVG 20010904//EN"
 "http://www.w3.org/TR/2001/REC-SVG-20010904/DTD/svg10.dtd">
<svg version="1.0" xmlns="http://www.w3.org/2000/svg"
 width="575.000000pt" height="575.000000pt" viewBox="0 0 575.000000 575.000000"
 preserveAspectRatio="xMidYMid meet">

<g transform="translate(0.000000,575.000000) scale(0.100000,-0.100000)"
fill="#000000" stroke="none">
<path d="M2349 4510 l-24 -25 27 -28 c24 -26 27 -26 32 -9 4 11 15 23 25 28
18 8 18 11 -8 34 l-28 25 -24 -25z"/>
<path d="M4429 4404 c-10 -12 -10 -18 2 -29 13 -13 16 -12 25 3 16 25 -8 48
-27 26z"/>
<path d="M3665 3970 c-3 -5 -1 -10 4 -10 6 0 11 5 11 10 0 6 -2 10 -4 10 -3 0
-8 -4 -11 -10z"/>
<path d="M1558 3894 c-15 -15 -14 -18 3 -35 19 -19 19 -19 38 0 18 18 18 19 0
35 -23 20 -21 20 -41 0z"/>
<path d="M4500 3841 c0 -6 -11 -20 -23 -32 l-24 -20 26 -28 26 -28 27 28 28
27 -30 32 c-17 18 -30 27 -30 21z"/>
<path d="M2680 3499 c-173 -159 -332 -307 -353 -328 l-39 -38 27 -53 27 -53
-34 22 c-18 12 -78 45 -132 72 -95 49 -99 50 -116 32 -9 -10 -101 -109 -204
-220 -105 -114 -223 -231 -269 -267 -74 -57 -92 -66 -167 -84 -176 -42 -346
-120 -440 -202 -38 -33 -33 -40 8 -11 15 10 59 34 97 54 218 109 362 112 985
21 1207 -177 1227 -180 1505 -171 237 8 374 30 555 88 304 99 549 303 656 544
l25 58 -58 -59 c-109 -111 -285 -208 -500 -278 -62 -20 -118 -36 -125 -36 -7
0 -62 45 -122 100 -87 78 -124 121 -180 207 l-71 108 -74 0 -75 0 -92 209
c-51 115 -98 212 -106 216 -7 4 -70 17 -139 29 -70 11 -131 22 -135 23 -5 1
23 4 61 7 l71 6 -55 148 -54 147 -81 0 -81 0 -315 -291z m320 -432 c58 -41
106 -72 108 -67 2 4 -4 50 -12 101 -8 51 -14 95 -12 97 2 2 109 -111 237 -251
129 -140 235 -253 237 -252 1 1 -5 24 -13 50 -8 27 -13 50 -11 52 1 1 125 -46
276 -106 150 -59 268 -111 262 -115 -6 -3 -75 -17 -154 -31 -375 -63 -775 -57
-1258 20 -399 63 -645 82 -884 66 -86 -6 -168 -14 -181 -17 -14 -3 -25 -4 -25
-1 0 3 87 48 193 101 l192 96 129 -13 130 -13 108 73 c60 40 116 73 126 73 10
0 60 -20 112 -45 51 -25 94 -44 96 -43 1 2 -22 36 -52 76 -31 40 -54 77 -52
83 2 5 59 54 127 109 l125 99 45 -33 c25 -18 93 -67 151 -109z"/>
<path d="M2081 3606 c-9 -11 -8 -15 5 -20 21 -8 34 1 27 19 -7 19 -17 19 -32
1z"/>
<path d="M3867 3456 c-8 -21 15 -37 30 -21 8 9 9 15 0 24 -15 15 -24 14 -30
-3z"/>
<path d="M1021 3296 c-8 -10 -8 -16 1 -24 19 -15 40 9 22 25 -9 9 -15 9 -23
-1z"/>
<path d="M3737 2228 c-12 -13 -29 -33 -37 -44 -13 -19 -32 -23 -135 -33 -161
-16 -257 -37 -324 -71 -72 -36 -108 -72 -139 -138 -94 -204 146 -366 273 -184
33 48 41 120 16 144 -11 11 -12 9 -6 -10 3 -12 -1 -46 -9 -76 -21 -73 -69
-116 -130 -116 -91 0 -129 100 -81 214 56 133 165 186 454 221 42 5 52 3 48
-7 -3 -7 -32 -78 -65 -158 -33 -80 -62 -153 -65 -162 -4 -12 -17 -18 -36 -18
-18 0 -42 -10 -58 -25 -23 -20 -25 -24 -10 -25 10 0 27 5 38 11 11 5 26 9 34
7 16 -4 -43 -138 -93 -210 -44 -64 -134 -148 -201 -189 -270 -164 -583 -70
-558 166 7 64 26 103 74 150 42 40 34 46 -17 11 -21 -14 -56 -60 -90 -116 -99
-165 -175 -209 -241 -139 -41 44 -95 160 -119 253 -28 109 -27 116 13 116 121
2 300 65 360 128 86 90 31 191 -130 237 -59 18 -77 27 -75 39 4 20 -7 20 -27
2 -13 -12 -30 -13 -96 -4 -94 12 -317 5 -395 -12 -185 -41 -311 -163 -297
-287 12 -112 128 -166 237 -110 48 24 90 76 90 111 -1 17 -3 15 -14 -9 -7 -17
-29 -44 -49 -62 -90 -79 -217 -33 -217 78 0 83 84 176 197 219 106 40 368 65
471 44 l31 -6 -49 -62 c-27 -35 -90 -130 -141 -212 -140 -227 -205 -318 -272
-380 -74 -69 -125 -93 -194 -94 -63 0 -97 14 -112 47 -16 35 -14 48 15 82 28
34 68 40 121 20 20 -7 25 -7 17 1 -5 5 -35 15 -65 22 -49 10 -60 9 -94 -8 -21
-10 -48 -31 -58 -46 -19 -25 -19 -30 -6 -65 23 -60 64 -78 184 -78 90 0 105 3
153 28 95 50 186 148 268 289 41 72 54 82 54 46 0 -13 11 -65 25 -117 52 -192
122 -281 223 -281 54 0 99 33 150 110 l42 64 0 -40 c0 -56 25 -123 61 -167
108 -132 359 -151 545 -42 116 68 247 232 309 386 l34 84 180 3 179 2 -23 -74
c-31 -97 -49 -200 -41 -238 19 -97 123 -89 194 14 41 60 84 147 79 161 -2 7
-20 -20 -40 -59 -58 -115 -108 -165 -146 -145 -36 20 -33 92 10 257 l21 81 49
12 c64 17 73 33 15 25 -58 -8 -58 -3 -10 120 46 114 82 186 127 254 39 57 31
66 -24 29 -40 -26 -118 -173 -170 -319 l-33 -91 -174 6 c-96 3 -176 8 -179 10
-2 3 22 78 54 167 49 139 61 164 83 172 71 27 95 46 95 74 0 24 -5 30 -27 32
-19 2 -35 -4 -51 -20z m53 -23 c0 -15 -48 -40 -58 -30 -8 7 29 45 45 45 7 0
13 -7 13 -15z m-1267 -72 c51 -21 77 -56 77 -106 0 -36 -6 -47 -53 -93 -68
-65 -140 -94 -259 -101 -49 -3 -88 -3 -88 1 0 4 46 79 103 167 l102 159 40 -6
c22 -4 57 -13 78 -21z"/>
</g>
</svg>
