<svg width="250" height="250" viewBox="0 0 250 250" version="1.1" xmlns="http://www.w3.org/2000/svg" id="h-o-l-ds"><defs><pattern xmlns="http://www.w3.org/2000/svg" id="g34r76i4d" patternUnits="userSpaceOnUse" width="15" height="15"><line stroke="#cccccc" x1="7.5" y1="0" x2="7.5" y2="15"></line><line stroke="#cccccc" x1="0" y1="7.5" x2="15" y2="7.5"></line></pattern></defs><rect xmlns="http://www.w3.org/2000/svg" width="100%" height="100%" fill="url(#g34r76i4d)" id="g34r76i4d_r" style="
    display: none;
"></rect><circle class="Rang" cx="125" cy="125" r="98.5" fill="none" stroke="#2f69c2" stroke-width="2" id="Rang0" layer="0"></circle><g font-size="16" font-style="normal" font-family="Days" fill="#2f69c2" stroke="none" font-weight="normal" in="0" rad="99.5" cut="-92" len="192" id="RangText1" layer="1"><text transform="translate(41.55,127.91) rotate(-87.56)"><tspan>R</tspan></text><text transform="translate(44.33,103.45) rotate(-73.27)"><tspan>I</tspan></text><text transform="translate(50.33,87.62) rotate(-59.02)"><tspan>V</tspan></text><text transform="translate(64.38,67.58) rotate(-42.46)"><tspan>E</tspan></text><text transform="translate(82.88,52.90) rotate(-25.85)"><tspan>R</tspan></text><text transform="translate(105.74,43.75) rotate(-11.50)"><tspan> </tspan></text><text transform="translate(122.68,41.53) rotate(3.04)"><tspan>H</tspan></text><text transform="translate(147.68,44.64) rotate(19.85)"><tspan>E</tspan></text><text transform="translate(169.28,54.21) rotate(36.61)"><tspan>A</tspan></text><text transform="translate(188.28,70.52) rotate(53.66)"><tspan>V</tspan></text><text transform="translate(201.36,91.20) rotate(70.22)"><tspan>E</tspan></text><text transform="translate(207.76,113.94) rotate(87.15)"><tspan>N</tspan></text></g><circle class="Rang" cx="125" cy="125" r="102" fill="none" stroke="#2f69c2" stroke-width="5.5" stroke-dasharray="1% 0.5%" id="Rang2" layer="2"></circle><g class="Img_l" x="125.5" y="125.5" s="72" al="-9" transform="translate(35, 35) rotate(-9 90 90) scale(0.72) " id="Img3" layer="3"><path fill="#2f69c2" fill-rule="nonzero" d="M123.47 16.17l1.21 0c2.72,0.02 5.5,0.31 7.92,1.7 3.17,-1.73 7.12,-1.11 10.25,0.39 2.26,2.25 4.15,5.06 7.44,5.97 -3.14,0.24 -6.24,-0.44 -9.22,-1.34 -2.16,-0.64 -3.21,-2.87 -4.99,-4.08 -1.17,-0.37 -2.39,-0.48 -3.58,-0.69 1.07,1 2.16,2.02 3.24,3.02 1.06,0.25 2.12,0.52 3.18,0.79 -2.83,0.94 -5.82,0.56 -8.7,0.11 -2.43,-0.25 -3.94,-2.37 -5.95,-3.48 -1.3,-0.25 -2.61,-0.39 -3.94,-0.45 1.86,1.79 4.18,2.95 6.76,3.24 -3.11,0.95 -6.42,1.34 -9.63,0.72 -1.96,-0.55 -3.47,-2.08 -5.42,-2.69 -1.27,-0.22 -2.57,-0.19 -3.85,-0.28 3.41,-2.79 8.32,-2.91 12.24,-1.22 1,-0.59 2.01,-1.17 3.04,-1.71zm21.44 2.57c2.66,-0.78 5.47,-0.15 8.01,0.77 3.9,1.38 4.05,7.24 8.71,7.31 -0.63,-1.14 -1.26,-2.28 -1.92,-3.41 -1.28,-0.39 -2.54,-0.88 -3.64,-1.67 3.19,-0.92 6.34,0.37 9.15,1.78 2.12,1.11 2.63,3.59 3.76,5.48 0.68,1.47 2.38,1.94 3.57,2.87 -4.03,-0.11 -7.91,-2.12 -10.91,-4.75 -3.03,0.87 -5.89,-0.91 -8.67,-1.86 -3.39,-0.98 -3.91,-5.77 -7.83,-5.73 -0.06,-0.2 -0.17,-0.59 -0.23,-0.79zm-48.42 2.9c2.45,-2.88 6.62,-3.18 10.13,-2.96 2.93,1.21 5.43,3.8 8.92,2.93 -1,0.56 -1.94,1.34 -3.11,1.42 -2.86,0.34 -5.85,1.13 -8.63,0.03 -0.03,0.26 -0.07,0.8 -0.1,1.07 -3.18,1.08 -6.43,2.1 -9.8,2.28 -1.77,-0.17 -3.32,-1.2 -5.05,-1.61 -1.38,-0.04 -2.71,0.51 -4.06,0.73 2.64,-3.43 7.56,-4.67 11.7,-3.89l0 0zm0.03 0.42c2.24,1.14 4.91,2.37 7.21,0.6 -2.26,-1.28 -4.79,-1.76 -7.21,-0.6zm-23.05 8.5c1.53,-3.18 5.08,-4.57 8.36,-5.14 2.24,-0.38 4.23,0.97 6.3,1.58 1.39,0.61 2.75,-0.67 4.1,-0.81 -1.6,2.7 -4.95,3.08 -7.67,3.97 -2.57,0.92 -5.06,-0.46 -7.6,-0.71 -1.21,0.21 -2.34,0.75 -3.49,1.11zm94.2 -4.77c3.57,-0.56 6.97,1.24 9.65,3.43 1.43,1.82 1.71,4.27 2.96,6.18 0.79,0.76 1.7,1.39 2.54,2.09 -3.1,-0.11 -5.61,-2.12 -8.11,-3.69 -2.15,-1.33 -2.49,-4.05 -3.96,-5.91 -0.99,-0.76 -2.07,-1.38 -3.08,-2.1zm-104.54 11.15c1.32,-3.14 4.47,-4.82 7.5,-5.89 2.53,-0.83 5.1,0.23 7.58,0.75 0.95,-0.41 1.91,-0.8 2.88,-1.18 -0.9,2.13 -3.16,2.85 -5.05,3.79 -1.79,0.86 -3.72,1.75 -5.76,1.25 -0.08,0.48 -0.22,1.44 -0.29,1.91 -2.47,2.16 -5.47,3.59 -8.39,5.06 -0.43,-0.26 -0.86,-0.5 -1.29,-0.76 -2.37,0.38 -4.79,0.78 -6.7,2.37 0.44,-3.22 3.58,-4.7 5.99,-6.31 2.52,-1.65 5.48,-0.19 8.21,-0.28 1.11,-0.25 1.74,-1.28 2.41,-2.1 -2.5,-0.53 -4.92,0.12 -7.09,1.39zm115.4 -5.79c3.53,-0.46 6.63,1.79 9.09,4.05 1.29,3.1 2,6.55 4.45,9.03 -2.73,-0.8 -4.91,-2.7 -7.1,-4.41 -1.99,-1.59 -2.36,-4.27 -3.28,-6.5 -1.1,-0.66 -2.17,-1.35 -3.16,-2.17zm10.54 6.44c2.59,-0.74 4.61,1.77 6.53,3.13 2.8,2.01 2.64,5.79 3.07,8.85 0.83,0.64 1.67,1.29 2.51,1.93 -0.13,-1.39 -0.17,-2.79 -0.43,-4.17 -0.7,-1.17 -1.79,-2.05 -2.67,-3.09 3.27,0.15 5.31,2.87 7.22,5.17 1.92,2.23 0.62,5.36 1.23,7.98 0.53,1.16 1.29,2.19 1.91,3.29 -3.55,-1.84 -5.64,-5.54 -7.55,-8.91 -2.96,-0.62 -4.85,-3.12 -6.94,-5.09 -1.97,-1.77 -1.9,-4.59 -2.47,-6.96 -0.75,-0.73 -2.09,-1.07 -2.41,-2.13zm-129.8 5.95c0.33,0.35 0.67,0.7 1.01,1.06 -2,1.36 -3.83,2.93 -5.81,4.3 -2.09,1.54 -4.84,0.86 -7.19,1.56 -1.03,0.62 -1.94,1.42 -2.93,2.11 0.76,-3.57 3.91,-5.82 6.82,-7.59 2.52,-1.46 5.9,0.51 8.1,-1.44zm-16.75 9.85c3.11,-1.34 6.77,-1.08 9.63,-3.13 -1.6,2.37 -3.46,4.59 -5.63,6.46 -1.7,1.57 -4.16,1.51 -6.22,2.29 -1.16,0.69 -1.94,1.86 -2.95,2.75 -0.01,-3.56 2.68,-6.19 5.17,-8.37zm164.11 -0.25c3.35,0.35 4.95,3.54 6.49,6.1 1.43,2.44 0.01,5.22 0.24,7.81 0.34,1.18 0.92,2.27 1.37,3.41 -2.55,-1.79 -4.11,-4.59 -5.47,-7.32 -1.01,-1.84 -0.54,-3.96 -0.63,-5.95 0.17,-1.64 -1.3,-2.73 -2,-4.05zm-164.31 7.4c0.51,-0.58 1.53,-1.78 2.04,-2.36 -0.43,2.98 -2.59,5.22 -4.35,7.51 -1.46,1.93 -4.04,2.14 -6.07,3.19 -1.1,0.86 -1.84,2.11 -2.81,3.12 -0.17,-3.15 1.72,-5.77 3.53,-8.13 1.81,-2.37 5.04,-2.46 7.66,-3.33zm171.71 2.11c3.27,1.11 4.59,4.51 5.83,7.42 0.58,2.59 -0.4,5.21 -0.89,7.73 0.47,1.03 0.94,2.06 1.44,3.09 0.92,-2.7 1.13,-5.56 -0.13,-8.2 3.21,1.7 4.24,5.39 4.88,8.7 0.31,2.02 -0.89,3.82 -1.35,5.72 -0.61,1.67 0.37,3.36 0.49,5.01 -2.82,-3.03 -3.66,-7.21 -4.29,-11.16 -2.38,-2.16 -3.6,-5.2 -4.68,-8.17 -0.84,-2.24 0.37,-4.58 0.08,-6.87 -0.35,-1.13 -0.94,-2.18 -1.38,-3.27zm-178.45 7.85c0.62,-0.92 1.24,-1.84 1.89,-2.73 0,3.12 -2.02,5.66 -3.58,8.19 -1.1,1.9 -3.35,2.43 -5.13,3.47 -1.5,0.66 -1.75,2.5 -2.56,3.74 -1.06,-2.85 0.74,-5.64 1.96,-8.13 1.41,-2.84 4.84,-3.28 7.42,-4.54zm-5.58 10.74c0.76,-0.91 1.26,-1.98 1.9,-2.96 -0.08,3.03 -1.46,5.79 -2.82,8.43 -1.1,2.23 -3.72,2.83 -5.44,4.43 -0.68,1.12 -1.13,2.36 -1.73,3.54 -0.95,-3.21 0.43,-6.35 1.79,-9.18 1.39,-2.31 4.26,-2.77 6.3,-4.26zm194.99 2.96c2.86,1.86 3.52,5.37 4.09,8.49 0.28,2.17 -0.93,4.06 -1.73,5.97 -0.75,1.42 -0.25,3.04 -0.31,4.55 -2.6,-3.68 -3.84,-8.86 -1.86,-13.09 1,-1.9 0.08,-3.97 -0.19,-5.92zm-198.02 4.82c1.07,2.62 -0.35,5.32 -1.14,7.82 -0.74,2.36 -2.82,3.79 -4.6,5.32 -1.27,1.03 -1.52,2.76 -2.25,4.14 -1.07,-2.97 -0.28,-6.11 0.91,-8.91 1.18,-2.56 3.98,-3.64 6.15,-5.2 0.28,-1.05 0.6,-2.11 0.93,-3.17zm201.7 7.01c2.55,1.51 2.84,4.71 3.21,7.36 0.63,4.25 -4.28,6.94 -3.21,11.3 -1.89,-2.39 -1.7,-5.61 -1.87,-8.48 -0.22,-2.45 1.58,-4.33 2.33,-6.5 -0.03,-1.23 -0.31,-2.46 -0.46,-3.68zm-205.66 7.25c0.3,-1.07 0.59,-2.17 1.38,-3.02 0.17,2.99 -0.51,5.94 -1.32,8.79 -0.5,2.44 -3.04,3.53 -4.32,5.47 -0.4,1.17 -0.56,2.39 -0.85,3.57 -1.82,-2.83 -0.99,-6.36 0,-9.34 0.81,-2.49 3.32,-3.76 5.11,-5.47zm208.2 4.28c2.4,2.43 2.25,5.99 2.09,9.13 -0.3,2.64 -2.53,4.42 -3.93,6.51 0.01,1.15 0,2.3 -0.04,3.44 -1.79,-2.73 -1.51,-6.15 -1.2,-9.23 0.15,-2.33 2.08,-3.89 3.01,-5.89 0.15,-1.32 0.03,-2.64 0.07,-3.96zm-209.47 4.27c1.39,2.62 0.62,5.65 0.23,8.42 -0.33,2.21 -2.08,3.73 -3.3,5.47 -1.17,1.19 -0.49,2.95 -0.62,4.4 0.91,-1.16 1.79,-2.35 2.66,-3.55 0.03,-0.77 0.07,-2.31 0.1,-3.07 1.97,2.25 1.01,5.49 1.21,8.21 0.17,2.76 -2.19,4.63 -3.06,7.04 0.01,1.17 0.05,2.33 0.13,3.51 -3.24,-3.11 -2.9,-8.46 -1.32,-12.32 -2.03,-2.25 -1.67,-5.37 -1.38,-8.14 0.13,-3.1 2.96,-4.91 4.84,-7.02 0.16,-0.99 0.33,-1.98 0.51,-2.95zm210.58 7.75c2.18,2.95 1.56,6.92 0.9,10.28 -1.55,2.89 -4.64,4.82 -5.27,8.26 -0.38,-2.98 -0.23,-6.03 0.38,-8.98 0.38,-2.26 2.38,-3.65 3.42,-5.57 0.31,-1.31 0.37,-2.67 0.57,-3.99zm-0.83 15.84c0.17,-1.27 0.38,-2.56 0.85,-3.76 1.48,2.87 1.06,6.19 0.17,9.15 -1.12,3.71 -6.11,4.75 -6.29,8.97 -1.19,-2.93 0.12,-6.08 0.9,-8.94 0.57,-2.4 2.82,-3.71 4.37,-5.42zm-209.9 -0.32c1.52,2.35 1.49,5.24 1.82,7.92 0.39,2.29 -1,4.25 -1.9,6.21 -0.93,1.5 -0.02,3.27 0.01,4.86 -2.97,-1.96 -3.06,-5.75 -3.2,-8.93 -0.06,-2.03 1.56,-3.5 2.41,-5.2 0.98,-1.44 0.64,-3.25 0.86,-4.86zm207.92 12.34c0.6,-1.23 1,-2.55 1.57,-3.8 1.26,2.98 0.21,6.14 -0.84,9 -1.14,2.57 -3.9,3.77 -6.14,5.21 -0.24,1.02 -0.48,2.06 -0.7,3.1 1.7,-0.93 3.46,-2.02 3.92,-4.07 0.13,-0.12 0.4,-0.37 0.53,-0.49 0.22,0.07 0.65,0.22 0.86,0.28 -0.2,4.43 -2.05,9.6 -6.7,11.06 -1.94,0.51 -2.79,2.22 -3.33,4.01 -0.2,-1.03 -0.43,-2.11 0.11,-3.1 1.03,-2.78 2.21,-5.6 4.32,-7.77 -0.59,-3.09 0.81,-6.01 1.86,-8.83 0.69,-2.21 3.07,-3.01 4.54,-4.6zm-206.31 -0.71c2.28,3.35 3.26,7.59 2.67,11.63 2.23,1.51 2.78,4.25 3.58,6.61 0.51,1.43 0.62,2.95 0.5,4.45 0.98,0.37 1.91,0.94 2.33,1.95 1.25,2.46 2.63,4.92 3.15,7.67 2.6,1.89 4.15,4.75 5.67,7.49 1,1.64 0.42,3.62 0.56,5.42 -0.25,1.97 1.23,3.48 2.08,5.1 -1.48,-0.61 -3.1,-1.21 -3.97,-2.64 -1.38,-2.08 -3.37,-4.13 -3.19,-6.81 -0.05,-2.32 1.16,-4.79 -0.26,-6.92 -0.4,-0.08 -1.23,-0.27 -1.63,-0.36 -0.46,2.49 0.6,4.71 1.57,6.91 -3.16,-1.39 -4.7,-4.67 -5.81,-7.73 -1.1,-3.33 2.35,-7.15 -0.58,-10 -0.41,1.3 -0.79,2.61 -1.15,3.92 0.47,1.17 0.93,2.35 1.35,3.55 -3.61,-1.84 -4.66,-6.23 -5.04,-9.91 0.74,-2.84 3.04,-6.07 0.48,-8.69 -1.18,2.35 -1.13,4.9 -0.23,7.33 -3.16,-2.24 -4.1,-6.35 -4.17,-9.98 0.94,-2.98 3.14,-5.65 2.09,-8.99zm197.68 24.05c1.66,-0.76 2.32,-2.59 3.39,-3.91 0.29,3.18 -1.05,6.18 -2.76,8.76 -1.7,2.13 -4.53,2.61 -6.88,3.67 -0.62,0.93 -1.24,1.86 -1.88,2.79 0.1,-3.11 2.08,-5.64 3.56,-8.21 0.92,-1.75 3.05,-2.05 4.57,-3.1zm-3.34 8.85c0.37,-0.46 1.1,-1.37 1.47,-1.82 0.43,3.39 -1.8,6.15 -3.76,8.61 -1.36,1.6 -3.56,1.7 -5.42,2.26 -1.72,0.38 -2.65,2.08 -3.97,3.08 0.66,-2.92 2.57,-5.3 4.35,-7.62 1.83,-2.44 5.58,-1.99 7.33,-4.51zm-7.58 11.5c1.05,-0.86 1.86,-1.97 2.81,-2.94 0.36,3.29 -2.09,5.67 -4.13,7.86 -2.1,2.18 -5.33,2.08 -8.1,2.52 -0.67,0.74 -1.35,1.46 -2.03,2.16 0.06,-2.77 2.65,-4.36 4.21,-6.36 1.71,-2.34 4.79,-2.24 7.24,-3.24zm-167.83 -1.72c2.82,1.27 4.33,4.09 6.1,6.47 1.55,2.03 0.98,4.72 1.48,7.07 0.6,1.03 1.57,1.75 2.35,2.63 0.4,-2.72 -0.82,-5.11 -2.39,-7.21 2.65,0.98 4.59,3.13 6.53,5.09 1.9,1.73 1.54,4.52 2.49,6.72 0.85,1.05 1.91,1.9 2.85,2.88 -4.24,-0.26 -7.64,-3.67 -9.61,-7.22 -3.03,-0.22 -5,-2.77 -6.73,-4.99 -2.63,-3.39 0.33,-8.31 -3.07,-11.44zm154.65 11.77c3.2,-0.64 6.76,-0.5 9.16,-3.15 -0.81,3.51 -3.78,6.06 -6.83,7.67 -3.23,0.44 -6.65,0.03 -9.67,1.63 2.12,-2.39 4.56,-4.57 7.34,-6.15zm-138.78 4.74c2.93,0.71 5.3,2.65 7.6,4.5 1.91,1.46 1.98,4.05 3.09,6.01 0.94,0.98 2.06,1.76 3.08,2.66 -3.36,0.04 -6.43,-1.74 -8.79,-4.01 -1.44,-1.43 -1.51,-3.58 -2.1,-5.41 -0.33,-1.64 -1.94,-2.51 -2.88,-3.75zm135.73 2.04c1.06,-0.5 1.89,-1.34 2.85,-1.97 0.04,3.31 -3.36,4.73 -5.66,6.36 -2.08,1.48 -4.67,0.95 -6.98,0.53 -1.11,-0.33 -2.81,-0.19 -2.85,1.34 -0.39,-0.42 -0.77,-0.85 -1.16,-1.28 2.56,-1.96 5.27,-3.83 8.32,-4.95 1.81,-0.32 3.66,0.1 5.48,-0.03zm-126.19 4.88c3.15,0.05 5.83,1.93 8.38,3.6 1.98,1.25 2.29,3.79 3.54,5.62 1,0.86 2.16,1.46 3.22,2.25 -3.04,0.64 -5.67,-1.06 -8.17,-2.46 -2.58,-1.46 -3,-4.65 -4.16,-7.11 -0.95,-0.63 -1.9,-1.25 -2.81,-1.9zm116.23 2.11c1.16,-0.5 2.33,-0.97 3.52,-1.39 -1.54,2.95 -4.61,4.66 -7.68,5.63 -3.2,1.05 -6.57,-1.98 -9.56,0.17 1.66,2.32 4.8,1.06 7.01,0.43 -1.73,2.85 -5,3.93 -8.02,4.75 -2.69,0.71 -5.15,-0.95 -7.63,-1.7 -0.85,0.29 -2.54,0.85 -3.39,1.12 2.57,-3.12 6.89,-3.68 10.62,-4.34 3.04,-3.16 7.31,-4.69 11.5,-5.61 -0.23,0.44 -0.68,1.34 -0.9,1.79 0.84,-1.88 3.02,-0.63 4.53,-0.85zm-105.2 3.26c3.03,0.46 5.87,1.77 8.51,3.3 1.42,0.77 1.92,2.41 2.79,3.67 0.78,1.73 2.81,2.14 4.28,3.09 -3.17,0.92 -6.31,-0.52 -9.08,-1.93 -3.11,-1.7 -2.82,-6.58 -6.56,-7.36l0.06 -0.77zm10.49 4.99c2.57,-1.24 5.23,0.59 7.7,1.25 2.32,0.55 3.58,2.62 4.97,4.35 1.03,1.38 2.92,1.47 4.35,2.21 -3.4,1.47 -7.07,0.11 -10.18,-1.45 -1.76,-1.35 -2.66,-3.5 -3.87,-5.3 -1,-0.34 -1.99,-0.7 -2.97,-1.06zm57.59 3.71c1.96,-2.45 5.37,-2.57 8.22,-3.09 2.04,-0.46 3.92,0.58 5.81,1.17 1.57,0.67 3.17,-0.28 4.72,-0.52 -1.55,2.76 -4.81,3.38 -7.63,4.08 -2.88,0.68 -5.38,-1.37 -7.98,-2.27 -1.05,0.23 -2.1,0.44 -3.14,0.63zm-46.66 -0.85c3.8,-0.96 7.96,0.11 11.24,2.12 3.12,-1.16 6.52,-0.63 9.71,0.04 2.19,0.44 3.39,2.66 5.38,3.53 1.14,0.15 2.29,0.25 3.47,0.3 -3.38,2.75 -8.47,1.94 -12.09,0.12 -2.9,1.72 -6.36,0.97 -9.37,0.01 -2.37,-1.04 -3.68,-3.45 -5.36,-5.29 -0.74,-0.21 -2.24,-0.63 -2.98,-0.83l0 0zm11.95 3.4c0.73,0.65 1.46,1.33 2.18,2.02 1.25,0.09 2.49,0.17 3.72,0.26 -1.39,-1.25 -2.81,-2.49 -4.42,-3.45 -0.5,0.39 -1,0.78 -1.48,1.17zm23.9 -2.08c3.03,-0.44 6.08,-1.1 9.14,-0.83 1.78,0.37 3.24,1.59 4.93,2.18 1.36,-0.05 2.73,-0.21 4.08,-0.45 -2.39,2.99 -6.57,3.34 -10.11,3.15 -2.73,-1.22 -5.26,-2.91 -8.04,-4.05zm-12.53 1.46c3.34,-1.36 7.26,-1.51 10.68,-0.43 2.33,1.77 4.99,3.04 8,2.45 -2.08,2.42 -5.46,2.24 -8.36,2.39 -4.08,0.01 -6.01,-4.98 -10.32,-4.41z"></path></g><g id="RangText8" layer="8" font-size="16" font-style="normal" font-family="Days" fill="#2f69c2" stroke="none" font-weight="normal" in="1" rad="98.5" cut="-124.5" len="117"><text transform="translate(46.66,177.84) rotate(52.00)"><tspan>D</tspan></text><text transform="translate(62.57,195.94) rotate(37.73)"><tspan>E</tspan></text><text transform="translate(81.41,208.85) rotate(23.37)"><tspan>H</tspan></text><text transform="translate(104.35,217.22) rotate(8.70)"><tspan>R</tspan></text><text transform="translate(128.09,219.45) rotate(-5.92)"><tspan>A</tspan></text><text transform="translate(152.04,215.55) rotate(-20.62)"><tspan>D</tspan></text><text transform="translate(174.06,205.77) rotate(-35.28)"><tspan>U</tspan></text><text transform="translate(192.90,190.73) rotate(-50.14)"><tspan>N</tspan></text></g><g id="RangText9" layer="9" font-size="22" font-style="normal" font-family="Days" fill="#2f69c2" stroke="none" font-weight="normal" in="0" rad="101" cut="-113" len="360"><text transform="translate(52.28,155.87) rotate(-109.60)"><tspan>*</tspan></text></g><g id="RangText10" layer="10" font-size="22" font-style="normal" font-family="Days" fill="#2f69c2" stroke="none" font-weight="normal" in="0" rad="100" cut="108" len="360"><text transform="translate(199.18,149.10) rotate(111.44)"><tspan>*</tspan></text></g><g class="Img_l" layer="11" id="Img11" x="75" y="71" s="29" al="0" transform="translate(38.75, 34.75) rotate(0 36.25 36.25) scale(0.29) " load="1"><svg data-root-id="5669093698855" xmlns="http://www.w3.org/2000/svg" xmlns:xlink="http://www.w3.org/1999/xlink" x="93.156" y="120" viewBox="1596.58 969.34 1806.86 1061.32" height="228.309" width="388.689" preserveAspectRatio="xMinYMin" data-layer-role="icon" style="position:absolute;height:228.309px;width:388.689px;top:120px;left:93.1556px"><path d="M3079.12 1881.23l-104.07-94.03-64.52-100.81-68.52 4.05-88.71-201.56-64.52-12.09-77.59-13.12h72.75l-51.58-140.12h-78.61l-327.16 302.54 24.79 51.04-46.38-31.02-76.56-36.28-185.47 201.56-80.61 63.31c-200.35 37.19-263.84 123.42-265.78 126.09 204.94-135.58 251.93-85.45 981.59 14.51 729.72 99.96 825.27-320.69 825.27-320.69-30.85 58.78-138.49 139.21-324.32 186.62zm-699.19 6.95c-213.83-37.25-372.87-35.98-489.71-18.2l181.72-90.83 120.95 12.09s92.76-64.52 104.86-68.58c11.91-3.93 105.95 46.81 108.79 48.32l-60.41-80.55 120.95-96.76 145.13 104.8-16.15-104.8 225.74 245.94-16.09-56.48 257.01 102.14c-166.96 39.86-394.15 53.17-682.79 2.91z" data-layer-id="4764383198856" fill="#2f69c2" stroke="#2f69c2"></path><path data-layer-id="5800087698856" fill="#2f69c2" d="M1897.6 1304.05l7.71-14.09 14.1-7.71-14.1-7.71-7.71-14.1-7.71 14.1-14.09 7.71 14.09 7.71z" stroke="#2f69c2"></path><path data-layer-id="2787337798856" fill="#2f69c2" d="M2139.49 1427.38l5.35-9.77 9.77-5.35-9.77-5.34-5.35-9.77-5.34 9.77-9.78 5.34 9.78 5.35z" stroke="#2f69c2"></path><path data-layer-id="6753706998856" fill="#2f69c2" d="M2266.49 1026.71l10.14-18.54 18.54-10.14-18.54-10.14-10.14-18.55-10.15 18.55-18.54 10.14 18.54 10.14z" stroke="#2f69c2"></path><path data-layer-id="5417750698856" fill="#2f69c2" d="M2967.97 1497.23l5.45-9.97 9.96-5.45-9.96-5.45-5.45-9.97-5.45 9.97-9.97 5.45 9.97 5.45z" stroke="#2f69c2"></path><path data-layer-id="823973898856" fill="#2f69c2" d="M3228 1060.49l6.05-11.06 11.05-6.05-11.05-6.05-6.05-11.05-6.05 11.05-11.06 6.05 11.06 6.05z" stroke="#2f69c2"></path><path data-layer-id="4298802698856" fill="#2f69c2" d="M2871.21 1248.47l3.02-5.53 5.53-3.02-5.53-3.03-3.02-5.52-3.02 5.52-5.53 3.03 5.53 3.02z" stroke="#2f69c2"></path><path data-layer-id="3470318398856" fill="#2f69c2" d="M1643.62 1570.92l4.78-8.74 8.74-4.78-8.74-4.78-4.78-8.74-4.78 8.74-8.74 4.78 8.74 4.78z" stroke="#2f69c2"></path><path data-layer-id="1962136998856" fill="#2f69c2" d="M3247.25 1334.53l10.99 20.09 10.98-20.09 20.08-10.98-20.08-10.98-10.98-20.08-10.99 20.08-20.08 10.98z" stroke="#2f69c2"></path></svg><svg data-root-id="9289644498856" xmlns="http://www.w3.org/2000/svg" y="350.67" x="287.5" height="0" width="0" data-layer-role="slogan" style="position:absolute;top:350.67px;width:0;height:0;left:287.5px"></svg><svg data-root-id="4965018798857" xmlns="http://www.w3.org/2000/svg" y="348.31" viewBox="-126.198 -87.203 273.482 106.649" x="150.759" height="106.649" width="273.482" data-layer-role="brandName" style="position:absolute;top:348.31px;width:273.482px;height:106.649px;left:150.759px"><g data-horizontal-grow="center" fill="#2f69c2" stroke="#2f69c2"><path d="M-24.045-.574q-4.902 4.937-11.027 4.69-6.115-.247-11.523-6.38-5.407-6.132-8.732-17.265-3.315-11.132-4.433-19.874-3.617 6.56-5.637 9.99-2.03 3.422-5.906 8.71-3.876 5.298-8.03 9.525Q-92.208 1.604-107.785.976q-14.118-.569-17.258-8.341-.768-1.813-.673-4.16.095-2.359 2.612-4.98 4.04-4.13 10.834-3.857 4.607.186 9.66 2.171 1.339.574.994 1.19-.335.618-2.706-.418-2.36-1.036-5.767-1.173-3.397-.137-5.96 2.372-2.564 2.518-2.677 5.336-.051 1.26.42 2.75 1.869 5.519 9.612 5.83 8.573.346 15.365-4.514 3.884-2.776 7.034-5.692 3.16-2.905 6.814-7.892 5.751-7.624 9.84-14.215 4.088-6.591 8.857-14.405 4.759-7.825 7.004-11.398 7.154-11.13 12.934-16.973-5.834-.755-11.69-.991-13.379-.54-26.72 1.696-13.34 2.244-21.331 8.308-10.057 7.661-10.423 16.754-.177 4.396 2.823 7.92 3.001 3.523 8.337 3.738 6.484.262 10.956-4.162 4.472-4.434 4.792-7.143.154-1.355.684-1.333.83.033.666 1.598-.931 4.986-4.418 8.309-6.1 5.829-14.253 5.5-6.175-.248-10.553-4.618-4.377-4.37-4.095-11.374.417-10.352 10.84-18.149 10.412-7.807 26.925-9.544 11.778-1.206 21.66-.808 9.882.398 18.2 1.884 2.835-2.818 3.884-2.776.63.025.59 1.025-.04.989-.62 2.437 7.684 1.56 10.273 2.395 15.491 5.238 15.104 14.86-.249 6.165-8.127 11.923-9.911 7.036-26.123 9.005-4.626.545-9.66.552 2.601 18.64 10.355 31.622 2.645 4.4 4.925 6.434 2.27 2.033 4.988 2.142 3.767.152 8.172-3.864 4.405-4.016 10.387-14.874.903-1.535 1.742-1.5.84.033.037 1.572Q-19.132-5.5-24.045-.575zm7.37-63.165q.033-.839-.143-1.687-.913-5.901-8.966-8.738-2.488-.83-10.171-2.401-2.01 3.172-9.814 14.797-7.794 11.625-11.633 18.486 2.315-.327 6.776-.517 4.45-.181 6.448-.31 11.98-.99 20.658-8.496 6.621-5.598 6.844-11.134z"></path><path d="M123.124-57.055q4.744-11.445 8.44-17.367 3.697-5.922 7.06-7.222 3.373-1.31 4.573-1.346 1.2-.035 1.209.285.009.31-1.33 1.03-1.34.72-4.486 5.634-3.156 4.906-7.88 14.99-4.735 10.084-8.165 21.29 6.377-.188 8.088-.869 1.7-.68 2.083-.272.372.41-.96 1.39-3.377 2.51-10.062 3.118-.094.213-1.52 5.077-4.75 16.368-4.558 22.855.109 3.658 1.461 5.079 1.343 1.43 2.812 1.387 1.46-.043 3.202-1.355 5.837-4.564 12.514-19.318.787-1.804 1.587-1.508.788.287.004 2.191-3.624 8.381-6.068 12.325-2.455 3.954-5.597 7.288-4.168 4.205-8.456 4.332-4.818.143-6.815-3.78-.995-1.852-1.041-3.42-.047-1.57-.048-3.301 0-1.72.237-4.509.228-2.778 1.306-6.942 1.087-4.173 1.703-6.333.616-2.169 1.868-5.867 1.251-3.699 1.342-4.022-4.499.133-35.495-.311-5.815 19.23-19.073 34.698-6.478 7.625-15.226 12.906-11.73 6.94-24.904 7.329-5.548.164-12.393-1.255-6.845-1.418-13.046-5.787-6.202-4.369-8.99-12.04-2.797-7.66-.667-17.147 1.108-4.845 5.332-9.162 4.214-4.316 7.04-4.5 1.04-.03 1.257.223.218.254-.141.635-.35.38-.873.606-3.088 1.452-6.3 6.149-4.22 6.197-3.981 14.253.37 12.555 12.688 18.364 7.435 3.441 17.26 3.151 4.288-.127 8.032-1.078 35.23-8.994 48.541-47.394-2.719.08-5.252 1.365-2.523 1.275-3.313 1.299-.78.023-.908-.604-.053-1.779 2.418-3.473 2.461-1.693 4.334-1.959l4.078-.12q6.203-16.93 14.272-34.337-2.71.39-7.715.959-5.015.568-8.145.97-3.13.403-7.705 1.279-4.577.865-7.586 1.945-3 1.089-6.665 2.978-3.656 1.889-6.107 4.262-5.79 5.824-8.058 14.054-.95 3.38-.84 7.148.112 3.759 2.936 7.237t7.322 3.345q8.896-.263 12.361-10.62 1.627-4.87 1.57-6.8-.057-1.938-.766-2.908-.71-.98.334-1.22.727-.122 1.284.802 1.33 2.682 1.423 5.82.093 3.14-1.888 6.86-3.367 6.592-9.37 8.97-2.897 1.126-5.826 1.213-2.929.086-5.894-1.076-5.61-2.246-8.398-7.916-1.781-3.409-1.874-6.547-.093-3.139.788-7.197.87-4.047 3.675-8.322 2.805-4.275 7.128-6.964 4.312-2.688 8.66-4.497 4.34-1.8 10.332-2.817 5.992-1.017 10.428-1.569 4.426-.54 10.694-1.046 6.268-.495 9.297-.905 1.091-2.013 3.355-4.961 2.274-2.949 3.93-3.468 1.655-.519 2.604-.547 3.869-.114 3.966 3.174.097 3.299-4.126 5.624-4.223 2.326-7.991 2.438-2.668 5.52-7.433 19.638-4.765 14.117-5.054 14.856 7.847-.232 20.268.29 12.42.524 15.25.44 1.91-6.128 6.643-17.573zm-22.786-25.608q-1.26.037-5.087 5.282 6.776-1.25 6.59-3.856-.135-1.147-1.19-1.326-.103-.107-.313-.1z"></path></g></svg></g></svg>