<svg viewBox="0 0 575 575" class="roots-wrapper"><svg data-root-id="5669093698855" xmlns="http://www.w3.org/2000/svg" xmlns:xlink="http://www.w3.org/1999/xlink" x="93.156" y="120" viewBox="1596.58 969.34 1806.86 1061.32" height="228.309" width="388.689" preserveAspectRatio="xMinYMin" data-layer-role="icon" style="position:absolute;height:228.309px;width:388.689px;top:120px;left:93.1556px"><path d="M3079.12 1881.23l-104.07-94.03-64.52-100.81-68.52 4.05-88.71-201.56-64.52-12.09-77.59-13.12h72.75l-51.58-140.12h-78.61l-327.16 302.54 24.79 51.04-46.38-31.02-76.56-36.28-185.47 201.56-80.61 63.31c-200.35 37.19-263.84 123.42-265.78 126.09 204.94-135.58 251.93-85.45 981.59 14.51 729.72 99.96 825.27-320.69 825.27-320.69-30.85 58.78-138.49 139.21-324.32 186.62zm-699.19 6.95c-213.83-37.25-372.87-35.98-489.71-18.2l181.72-90.83 120.95 12.09s92.76-64.52 104.86-68.58c11.91-3.93 105.95 46.81 108.79 48.32l-60.41-80.55 120.95-96.76 145.13 104.8-16.15-104.8 225.74 245.94-16.09-56.48 257.01 102.14c-166.96 39.86-394.15 53.17-682.79 2.91z" data-layer-id="4764383198856" fill="#284389"/><path data-layer-id="5800087698856" fill="#284389" d="M1897.6 1304.05l7.71-14.09 14.1-7.71-14.1-7.71-7.71-14.1-7.71 14.1-14.09 7.71 14.09 7.71z"/><path data-layer-id="2787337798856" fill="#284389" d="M2139.49 1427.38l5.35-9.77 9.77-5.35-9.77-5.34-5.35-9.77-5.34 9.77-9.78 5.34 9.78 5.35z"/><path data-layer-id="6753706998856" fill="#284389" d="M2266.49 1026.71l10.14-18.54 18.54-10.14-18.54-10.14-10.14-18.55-10.15 18.55-18.54 10.14 18.54 10.14z"/><path data-layer-id="5417750698856" fill="#284389" d="M2967.97 1497.23l5.45-9.97 9.96-5.45-9.96-5.45-5.45-9.97-5.45 9.97-9.97 5.45 9.97 5.45z"/><path data-layer-id="823973898856" fill="#284389" d="M3228 1060.49l6.05-11.06 11.05-6.05-11.05-6.05-6.05-11.05-6.05 11.05-11.06 6.05 11.06 6.05z"/><path data-layer-id="4298802698856" fill="#284389" d="M2871.21 1248.47l3.02-5.53 5.53-3.02-5.53-3.03-3.02-5.52-3.02 5.52-5.53 3.03 5.53 3.02z"/><path data-layer-id="3470318398856" fill="#284389" d="M1643.62 1570.92l4.78-8.74 8.74-4.78-8.74-4.78-4.78-8.74-4.78 8.74-8.74 4.78 8.74 4.78z"/><path data-layer-id="1962136998856" fill="#284389" d="M3247.25 1334.53l10.99 20.09 10.98-20.09 20.08-10.98-20.08-10.98-10.98-20.08-10.99 20.08-20.08 10.98z"/></svg><svg data-root-id="9289644498856" xmlns="http://www.w3.org/2000/svg" y="350.67" x="287.5" height="0" width="0" data-layer-role="slogan" style="position:absolute;top:350.67px;width:0;height:0;left:287.5px"/><svg data-root-id="4965018798857" xmlns="http://www.w3.org/2000/svg" y="348.31" viewBox="-126.198 -87.203 273.482 106.649" x="150.759" height="106.649" width="273.482" data-layer-role="brandName" style="position:absolute;top:348.31px;width:273.482px;height:106.649px;left:150.759px"><g data-horizontal-grow="center" fill="#284389"><path d="M-24.045-.574q-4.902 4.937-11.027 4.69-6.115-.247-11.523-6.38-5.407-6.132-8.732-17.265-3.315-11.132-4.433-19.874-3.617 6.56-5.637 9.99-2.03 3.422-5.906 8.71-3.876 5.298-8.03 9.525Q-92.208 1.604-107.785.976q-14.118-.569-17.258-8.341-.768-1.813-.673-4.16.095-2.359 2.612-4.98 4.04-4.13 10.834-3.857 4.607.186 9.66 2.171 1.339.574.994 1.19-.335.618-2.706-.418-2.36-1.036-5.767-1.173-3.397-.137-5.96 2.372-2.564 2.518-2.677 5.336-.051 1.26.42 2.75 1.869 5.519 9.612 5.83 8.573.346 15.365-4.514 3.884-2.776 7.034-5.692 3.16-2.905 6.814-7.892 5.751-7.624 9.84-14.215 4.088-6.591 8.857-14.405 4.759-7.825 7.004-11.398 7.154-11.13 12.934-16.973-5.834-.755-11.69-.991-13.379-.54-26.72 1.696-13.34 2.244-21.331 8.308-10.057 7.661-10.423 16.754-.177 4.396 2.823 7.92 3.001 3.523 8.337 3.738 6.484.262 10.956-4.162 4.472-4.434 4.792-7.143.154-1.355.684-1.333.83.033.666 1.598-.931 4.986-4.418 8.309-6.1 5.829-14.253 5.5-6.175-.248-10.553-4.618-4.377-4.37-4.095-11.374.417-10.352 10.84-18.149 10.412-7.807 26.925-9.544 11.778-1.206 21.66-.808 9.882.398 18.2 1.884 2.835-2.818 3.884-2.776.63.025.59 1.025-.04.989-.62 2.437 7.684 1.56 10.273 2.395 15.491 5.238 15.104 14.86-.249 6.165-8.127 11.923-9.911 7.036-26.123 9.005-4.626.545-9.66.552 2.601 18.64 10.355 31.622 2.645 4.4 4.925 6.434 2.27 2.033 4.988 2.142 3.767.152 8.172-3.864 4.405-4.016 10.387-14.874.903-1.535 1.742-1.5.84.033.037 1.572Q-19.132-5.5-24.045-.575zm7.37-63.165q.033-.839-.143-1.687-.913-5.901-8.966-8.738-2.488-.83-10.171-2.401-2.01 3.172-9.814 14.797-7.794 11.625-11.633 18.486 2.315-.327 6.776-.517 4.45-.181 6.448-.31 11.98-.99 20.658-8.496 6.621-5.598 6.844-11.134z"/><path d="M123.124-57.055q4.744-11.445 8.44-17.367 3.697-5.922 7.06-7.222 3.373-1.31 4.573-1.346 1.2-.035 1.209.285.009.31-1.33 1.03-1.34.72-4.486 5.634-3.156 4.906-7.88 14.99-4.735 10.084-8.165 21.29 6.377-.188 8.088-.869 1.7-.68 2.083-.272.372.41-.96 1.39-3.377 2.51-10.062 3.118-.094.213-1.52 5.077-4.75 16.368-4.558 22.855.109 3.658 1.461 5.079 1.343 1.43 2.812 1.387 1.46-.043 3.202-1.355 5.837-4.564 12.514-19.318.787-1.804 1.587-1.508.788.287.004 2.191-3.624 8.381-6.068 12.325-2.455 3.954-5.597 7.288-4.168 4.205-8.456 4.332-4.818.143-6.815-3.78-.995-1.852-1.041-3.42-.047-1.57-.048-3.301 0-1.72.237-4.509.228-2.778 1.306-6.942 1.087-4.173 1.703-6.333.616-2.169 1.868-5.867 1.251-3.699 1.342-4.022-4.499.133-35.495-.311-5.815 19.23-19.073 34.698-6.478 7.625-15.226 12.906-11.73 6.94-24.904 7.329-5.548.164-12.393-1.255-6.845-1.418-13.046-5.787-6.202-4.369-8.99-12.04-2.797-7.66-.667-17.147 1.108-4.845 5.332-9.162 4.214-4.316 7.04-4.5 1.04-.03 1.257.223.218.254-.141.635-.35.38-.873.606-3.088 1.452-6.3 6.149-4.22 6.197-3.981 14.253.37 12.555 12.688 18.364 7.435 3.441 17.26 3.151 4.288-.127 8.032-1.078 35.23-8.994 48.541-47.394-2.719.08-5.252 1.365-2.523 1.275-3.313 1.299-.78.023-.908-.604-.053-1.779 2.418-3.473 2.461-1.693 4.334-1.959l4.078-.12q6.203-16.93 14.272-34.337-2.71.39-7.715.959-5.015.568-8.145.97-3.13.403-7.705 1.279-4.577.865-7.586 1.945-3 1.089-6.665 2.978-3.656 1.889-6.107 4.262-5.79 5.824-8.058 14.054-.95 3.38-.84 7.148.112 3.759 2.936 7.237t7.322 3.345q8.896-.263 12.361-10.62 1.627-4.87 1.57-6.8-.057-1.938-.766-2.908-.71-.98.334-1.22.727-.122 1.284.802 1.33 2.682 1.423 5.82.093 3.14-1.888 6.86-3.367 6.592-9.37 8.97-2.897 1.126-5.826 1.213-2.929.086-5.894-1.076-5.61-2.246-8.398-7.916-1.781-3.409-1.874-6.547-.093-3.139.788-7.197.87-4.047 3.675-8.322 2.805-4.275 7.128-6.964 4.312-2.688 8.66-4.497 4.34-1.8 10.332-2.817 5.992-1.017 10.428-1.569 4.426-.54 10.694-1.046 6.268-.495 9.297-.905 1.091-2.013 3.355-4.961 2.274-2.949 3.93-3.468 1.655-.519 2.604-.547 3.869-.114 3.966 3.174.097 3.299-4.126 5.624-4.223 2.326-7.991 2.438-2.668 5.52-7.433 19.638-4.765 14.117-5.054 14.856 7.847-.232 20.268.29 12.42.524 15.25.44 1.91-6.128 6.643-17.573zm-22.786-25.608q-1.26.037-5.087 5.282 6.776-1.25 6.59-3.856-.135-1.147-1.19-1.326-.103-.107-.313-.1z"/></g></svg></svg>